# xmcd CD database file generated by Grip 3.0.0
#
# Track frame offsets:
#       150
#       12648
#       23320
#       33788
#       44768
#       56538
#       67985
#       84140
#       95763
#       108463
#       119780
#       132705
#       145535
#       156520
#       166675
#
# Disc length: 2382 seconds
#
# Revision: 1
# Processed by: cddbd v1.4PL0 Copyright (c) Steve Scherf et al.
# Submitted via: Grip 3.0.0
#
DISCID=c7094c0f
DTITLE=Jimmy Reed - Caress Me Baby
DYEAR=1993
DGENRE=Blues
TTITLE0=Honest I Do
TTITLE1=Found Love
TTITLE2=Ain't That Lovin' You Baby
TTITLE3=Little Rain
TTITLE4=Hush, Hush
TTITLE5=Boogie In The Dark
TTITLE6=Cold And Lonesome
TTITLE7=Close Together
TTITLE8=Caress Me Baby
TTITLE9=I'm Nervous
TTITLE10=Oh, John
TTITLE11=Shame, Shame, Shame
TTITLE12=You're Something Else
TTITLE13=I Ain't Got You
TTITLE14=Going Fishing
EXTD=
EXTT0=
EXTT1=
EXTT2=
EXTT3=
EXTT4=
EXTT5=
EXTT6=
EXTT7=
EXTT8=
EXTT9=
EXTT10=
EXTT11=
EXTT12=
EXTT13=
EXTT14=
PLAYORDER=
